<svg height="500" preserveAspectRatio="xMidYMid meet" viewBox="0 0 375 374.999991" width="500" xmlns="http://www.w3.org/2000/svg" xmlns:xlink="http://www.w3.org/1999/xlink" zoomAndPan="magnify"><clipPath id="a"><path d="m93.277344 93.277344h188.25v188.25h-188.25zm0 0"/></clipPath><clipPath id="b"><path d="m120.972656 120.972656h132.75v132.75h-132.75zm0 0"/></clipPath><g clip-path="url(#a)"><path d="m275.707031 212.5c-2.386719 8.125-6.03125 15.832031-10.554687 22.933594-3.734375 5.777344-7.976563 11.207031-12.75 16.148437-.613282.671875-1.304688 1.277344-1.957032 1.914063-.667968.625-1.316406 1.273437-1.996093 1.882812l-2.066407 1.796875-1.035156.898438-3.210937 2.566406c-.726563.554687-1.476563 1.078125-2.210938 1.621094-1.453125 1.109375-2.996093 2.089843-4.511719 3.117187-.214843.148438-.445312.300782-.683593.460938-.246094.148437-.503907.300781-.769531.464844-.535157.316406-1.109376.660156-1.722657 1.027343-1.207031.757813-2.636719 1.472657-4.179687 2.292969-.390625.199219-.777344.417969-1.1875.617188-.414063.191406-.835938.386718-1.265625.585937-.855469.394531-1.746094.808594-2.664063 1.230469-1.878906.734375-3.839844 1.617187-5.980468 2.304687-8.445313 3.058594-18.980469 4.953125-29.558594 4.996094-10.574219-.042969-21.113282-1.9375-29.558594-4.996094-2.136719-.6875-4.097656-1.570312-5.980469-2.304687-.917969-.421875-1.804687-.835938-2.664062-1.230469-.429688-.199219-.847657-.394531-1.261719-.585937-.410156-.195313-.800781-.417969-1.1875-.617188-1.542969-.820312-2.976562-1.535156-4.183594-2.292969-.609375-.367187-1.183594-.710937-1.71875-1.027343-.265625-.160157-.523437-.316407-.769531-.464844-.238281-.160156-.46875-.3125-.6875-.460938-5.742187-3.765625-11.140625-8.042968-16.046875-12.84375-5.175781-5.171875-9.699219-10.960937-13.6875-17.101562-4.523438-7.097656-8.167969-14.808594-10.554688-22.933594-2.484374-8.097656-3.632812-16.597656-3.707031-25.097656.074219-8.5 1.222657-16.996094 3.707031-25.097656 2.386719-8.125 6.03125-15.832032 10.550782-22.933594 3.734375-5.777344 7.980468-11.207032 12.75-16.144532.617187-.675781 1.304687-1.277343 1.960937-1.914062.664063-.628906 1.3125-1.273438 1.992188-1.882812l2.070312-1.800782 1.03125-.898437 1.074219-.851563 2.140625-1.710937c.726563-.554688 1.472656-1.078125 2.207031-1.621094 1.453125-1.113281 3-2.089844 4.511719-3.121094.21875-.144531.449219-.296875.6875-.460937.246094-.144532.5-.300782.769531-.460938.53125-.320312 1.109375-.664062 1.71875-1.027344 1.207032-.761718 2.640625-1.476562 4.183594-2.296874.386719-.199219.777344-.417969 1.1875-.613282.414062-.191406.832031-.386718 1.261719-.585937.859375-.398438 1.746093-.808594 2.664062-1.234375 1.882813-.734375 3.84375-1.617188 5.980469-2.300782 8.445312-3.0625 18.984375-4.953124 29.558594-5 10.578125.046876 21.113281 1.9375 29.558594 5 2.140624.683594 4.101562 1.566407 5.980468 2.300782.917969.425781 1.804688.835937 2.664063 1.234375.429687.199219.851562.394531 1.265625.585937.410156.195313.796875.414063 1.1875.613282 1.542968.820312 2.972656 1.535156 4.179687 2.296874.613281.363282 1.1875.707032 1.71875 1.027344.269531.160156.523438.3125.773438.460938.238281.160156.464843.316406.683593.460937 5.746094 3.765625 11.144532 8.042969 16.050782 12.847657 5.175781 5.167968 9.699218 10.957031 13.6875 17.097656 4.523437 7.101562 8.167968 14.808594 10.554687 22.933594 2.484375 8.101562 3.632813 16.597656 3.707031 25.097656-.074218 8.5-1.222656 17-3.707031 25.097656zm5.820313-25.160156v-.007813c-.078125-8.675781-1.246094-17.363281-3.773438-25.640625-2.433594-8.308594-6.15625-16.191406-10.800781-23.433594l-2.230469-3.351562s-.644531-.902344-1.613281-2.257812c-.933594-1.382813-2.359375-3.082032-3.71875-4.832032-1.46875-1.664062-2.875-3.378906-4.058594-4.546875-1.148437-1.203125-1.914062-2-1.914062-2s-.195313-.199219-.546875-.535156c-.347656-.335937-.84375-.816406-1.441406-1.394531-1.167969-1.1875-2.859376-2.621094-4.519532-4.085938-.851562-.710937-1.726562-1.386718-2.539062-2.039062-.40625-.324219-.796875-.636719-1.171875-.933594-.386719-.277344-.75-.539062-1.085938-.785156-1.347656-.972656-2.25-1.621094-2.25-1.621094s-.195312-.15625-.511719-.363281c-.3125-.207031-.730468-.488281-1.148437-.769531-.835937-.558594-1.671875-1.117188-1.671875-1.117188-.222656-.152344-.457031-.308594-.699219-.472656-.253906-.15625-.515625-.3125-.789062-.476563-.546875-.328125-1.132813-.683593-1.757813-1.058593-1.234375-.777344-2.695312-1.511719-4.277344-2.355469-.394531-.203125-.792968-.429688-1.214843-.628907-.421875-.199218-.851563-.398437-1.289063-.601562-.878906-.40625-1.789062-.828125-2.726562-1.265625-1.925782-.753906-3.933594-1.65625-6.121094-2.363281-8.640625-3.136719-19.433594-5.082032-30.253906-5.125-10.820313.042968-21.609375 1.988281-30.253906 5.128906-2.1875.703125-4.195313 1.605469-6.117188 2.363281-.941406.433594-1.851562.855469-2.726562 1.261719-.441407.203125-.871094.40625-1.292969.601562-.417969.199219-.816407.425782-1.214844.628907-1.578125.84375-3.042969 1.578125-4.277344 2.355469-.625.375-1.210937.730468-1.757812 1.058593-.269531.164063-.535157.324219-.785157.476563-.246093.164062-.476562.320312-.703124.472656 0 0-.835938.558594-1.671876 1.117188-.417968.28125-.835937.5625-1.148437.769531-.316406.207031-.511719.363281-.511719.363281s-.898437.648438-2.246094 1.621094c-.335937.246094-.703124.507812-1.089843.785156-.371094.296875-.765625.609375-1.171875.933594-.808594.652344-1.683594 1.328125-2.539063 2.039062-1.660156 1.464844-3.351562 2.898438-4.515625 4.085938-.597656.578125-1.097656 1.058594-1.445312 1.394531s-.542969.535156-.542969.535156-.765625.796875-1.917969 2c-1.183594 1.167969-2.589844 2.882813-4.054687 4.546875-1.363281 1.75-2.789063 3.453125-3.71875 4.832032-.96875 1.355468-1.613281 2.257812-1.613281 2.257812l-2.234376 3.351562c-4.640624 7.242188-8.367187 15.128907-10.796874 23.433594-2.53125 8.28125-3.695313 16.964844-3.773438 25.644532l-.003906.003906v.125l.003906.007812c.078125 8.679688 1.242188 17.363282 3.773438 25.644532 2.429687 8.304687 6.15625 16.1875 10.796874 23.429687l2.234376 3.355469s.644531.902344 1.613281 2.253906c.929687 1.382812 2.355469 3.085938 3.71875 4.835938 1.464843 1.660156 2.871093 3.375 4.054687 4.546874 1.152344 1.199219 1.917969 2 1.917969 2s.195313.199219.542969.53125c.347656.339844.847656.820313 1.445312 1.398438 1.164063 1.1875 2.855469 2.617188 4.515625 4.085938.855469.707031 1.730469 1.386718 2.539063 2.035156.40625.324218.800781.636718 1.171875.933594.386719.28125.753906.542968 1.089843.785156 1.347657.972656 2.246094 1.621094 2.246094 1.621094s.195313.160156.511719.363281c.316406.210937.734375.488281 1.148437.769531.835938.5625 1.675782 1.121094 1.675782 1.121094.222656.148437.457031.308594.699218.472656.25.152344.515626.3125.785157.476562.546875.328126 1.132812.679688 1.757812 1.054688 1.238281.78125 2.699219 1.515625 4.277344 2.355469.398437.207031.796875.429687 1.214844.632812.421875.195313.855469.398438 1.292969.601563.875.40625 1.785156.828125 2.726562 1.261718 1.921875.757813 3.929688 1.660157 6.117188 2.363282 8.644531 3.140625 19.433593 5.082031 30.253906 5.125 10.820312-.042969 21.613281-1.984375 30.253906-5.125 2.1875-.703125 4.195312-1.605469 6.121094-2.363282.9375-.433593 1.847656-.855468 2.726562-1.261718.4375-.207032.867188-.40625 1.289063-.601563.421875-.203125.820312-.425781 1.21875-.632812 1.578125-.839844 3.039062-1.574219 4.273437-2.355469.625-.375 1.210938-.726562 1.757813-1.054688.273437-.164062.535156-.324218.789062-.476562.242188-.164062.476563-.324219.699219-.472656 0 0 .835938-.558594 1.671875-1.121094.417969-.28125.835937-.558594 1.148437-.769531.316407-.203125.511719-.363281.511719-.363281s.902344-.648438 2.25-1.621094c.335938-.242188.699219-.503906 1.085938-.785156.375-.296876.765625-.609376 1.171875-.933594.8125-.648438 1.6875-1.328125 2.539062-2.035156 1.660156-1.46875 3.351563-2.898438 4.519532-4.085938.597656-.578125 1.09375-1.058594 1.441406-1.398438.351562-.332031.546875-.53125.546875-.53125s.765625-.800781 1.914062-2c1.183594-1.171874 2.589844-2.886718 4.058594-4.546874 1.359375-1.75 2.789063-3.453126 3.71875-4.835938.96875-1.351562 1.613281-2.253906 1.613281-2.253906l2.230469-3.355469c4.644531-7.242187 8.367187-15.125 10.800781-23.429687 2.527344-8.28125 3.695313-16.964844 3.773438-25.644532z" fill="#642e17"/></g><g clip-path="url(#b)"><path d="m187.347656 120.972656c-36.597656 0-66.375 29.777344-66.375 66.375s29.777344 66.375 66.375 66.375 66.375-29.777344 66.375-66.375-29.777344-66.375-66.375-66.375zm0 0" fill="#994837"/></g><path d="m148.1875 151.320312h78.472656v7.90625h-78.472656zm0 0" fill="#998675"/><path d="m220.945312 159.226562-.105468.617188-.085938-.617188zm0 0" fill="#fff"/><path d="m220.753906 159.226562.085938.617188v.003906l-3.128906 18.304688h-60.574219l-3.136719-18.363282v-.007812l.078125-.554688zm0 0" fill="#f2e0ca"/><path d="m218.867188 145.867188.769531 5.453124h-64.445313l.769532-5.453124zm0 0" fill="#f2e0ca"/><path d="m217.710938 178.152344-5.6875 33.304687h-49.199219l-5.6875-33.304687zm-15.671876 17.011718c0-7.410156-6.15625-13.417968-13.753906-13.417968-7.59375 0-13.753906 6.007812-13.753906 13.417968 0 7.410157 6.160156 13.414063 13.753906 13.414063 7.597656 0 13.753906-6.003906 13.753906-13.414063zm0 0" fill="#3f582e"/><path d="m212.023438 211.457031-3.359376 19.644531h-42.480468l-3.359375-19.644531zm0 0" fill="#f2e0ca"/><path d="m202.039062 195.164062c0 .878907-.085937 1.75-.261718 2.617188-.179688.863281-.4375 1.703125-.785156 2.515625-.34375.8125-.769532 1.585937-1.269532 2.320313-.503906.730468-1.074218 1.410156-1.710937 2.03125-.640625.625-1.332031 1.179687-2.085938 1.667968-.75.492188-1.542969.90625-2.375 1.242188-.835937.335937-1.695312.589844-2.582031.761718-.886719.171876-1.78125.257813-2.683594.257813s-1.796875-.085937-2.683594-.257813c-.886718-.171874-1.746093-.425781-2.578124-.761718-.835938-.335938-1.628907-.75-2.378907-1.242188-.75-.488281-1.445312-1.042968-2.085937-1.667968-.636719-.621094-1.207032-1.300782-1.710938-2.03125-.5-.734376-.925781-1.507813-1.269531-2.320313s-.605469-1.652344-.78125-2.515625c-.175781-.867188-.265625-1.738281-.265625-2.617188 0-.882812.089844-1.753906.265625-2.617187.175781-.867187.4375-1.703125.78125-2.519531.34375-.8125.769531-1.585938 1.269531-2.320313.503906-.730469 1.074219-1.410156 1.710938-2.03125.640625-.625 1.335937-1.179687 2.085937-1.667969.75-.488281 1.542969-.902343 2.378907-1.242187.832031-.335937 1.691406-.589844 2.578124-.761719.886719-.171875 1.78125-.257812 2.683594-.257812s1.796875.085937 2.683594.257812 1.746094.425782 2.582031.761719c.832031.339844 1.625.753906 2.375 1.242187.753907.488282 1.445313 1.042969 2.085938 1.667969.636719.621094 1.207031 1.300781 1.710937 2.03125.5.734375.925782 1.507813 1.269532 2.320313.347656.816406.605468 1.652344.785156 2.519531.175781.863281.261718 1.734375.261718 2.617187zm0 0" fill="#fff"/><path d="m154.078125 159.226562-.078125.554688-.097656-.554688zm0 0" fill="#fff"/><g fill="#3f582e"><path d="m1.1875-4.9375c-.179688.90625-.453125 1.777344-.828125 2.609375-.36328125.824219-.765625 1.480469-1.203125 1.96875l-2.46875-1.703125c.398438-.46875.75-1.007812 1.0625-1.625.304688-.613281.507812-1.21875.609375-1.8125.09375-.519531.117187-.894531.0625-1.125-.0625-.238281-.1875-.378906-.375-.421875-.238281-.039063-.441406.074219-.609375.34375-.164062.261719-.378906.710937-.640625 1.34375-.332031.8125-.648437 1.484375-.953125 2.015625-.3125.53125-.738281.960938-1.28125 1.28125-.550781.324219-1.226562.414062-2.03125.265625-.675781-.132813-1.265625-.441406-1.765625-.921875-.5-.488281-.835937-1.148438-1.015625-1.984375-.175781-.832031-.160156-1.800781.046875-2.90625.136719-.75.355469-1.46875.65625-2.15625.304687-.695313.664063-1.296875 1.078125-1.796875l2.453125 1.609375c-.738281.980469-1.195313 1.949219-1.375 2.90625-.1875.949219-.046875 1.464844.421875 1.546875.21875.042969.414062-.066406.578125-.328125.167969-.257813.371094-.691406.609375-1.296875.3125-.820312.632812-1.5.953125-2.03125.3125-.53125.734375-.96875 1.265625-1.3125s1.199219-.4375 2-.28125c.699219.125 1.289062.433594 1.765625.921875.488281.492187.828125 1.152344 1.015625 1.984375.1875.835938.175781 1.804688-.03125 2.90625zm0 0" transform="translate(113.387228 179.966121)"/><path d="m.78125-10.5625 2.671875.953125-3.140625 8.75-10.515625-3.78125 3.0625-8.546875 2.671875.96875-1.8125 5.0625 1.21875.4375 1.59375-4.453125 2.5625.921875-1.59375 4.453125 1.390625.5zm0 0" transform="translate(115.644333 168.404576)"/><path d="m3.5-5.703125c-.574219 1.03125-1.3125 1.839844-2.21875 2.421875-.898438.574219-1.859375.882812-2.890625.921875-1.03125.03125-2.039063-.234375-3.03125-.796875-.976563-.550781-1.722656-1.28125-2.234375-2.1875-.519531-.90625-.757812-1.890625-.71875-2.953125.03125-1.0625.335938-2.109375.90625-3.140625.53125-.945312 1.179688-1.695312 1.9375-2.25.761719-.550781 1.589844-.894531 2.484375-1.03125l.671875 3.125c-1.101562.179688-1.882812.679688-2.34375 1.5-.382812.679688-.472656 1.351562-.265625 2.015625.210937.667969.683594 1.203125 1.421875 1.609375.75.429688 1.464844.558594 2.140625.390625.6640625-.175781 1.191406-.601563 1.578125-1.28125.457031-.820313.476562-1.75.0625-2.78125l3.015625-1.03125c.363281.84375.5 1.730469.40625 2.65625-.085937.929687-.390625 1.867187-.921875 2.8125zm0 0" transform="translate(119.751258 157.133901)"/><path d="m4.4375-5.015625c-.75.917969-1.621094 1.585937-2.609375 2-.980469.417969-1.976563.554687-3 .40625-1.019531-.144531-1.972656-.578125-2.859375-1.296875-.863281-.71875-1.46875-1.566406-1.8125-2.546875-.351562-.988281-.414062-2.003906-.1875-3.046875.21875-1.039062.703125-2.019531 1.453125-2.9375.6875-.832031 1.453125-1.457031 2.296875-1.875.835938-.414062 1.703125-.609375 2.609375-.578125l.125 3.1875c-1.113281-.007813-1.972656.34375-2.578125 1.0625-.488281.605469-.6875 1.257813-.59375 1.953125.085938.6875.449219 1.304688 1.09375 1.84375.667969.542969 1.351562.789062 2.046875.734375.695313-.050781 1.289063-.378906 1.78125-.984375.601563-.71875.785156-1.625.546875-2.71875l3.15625-.5c.207031.898438.1875 1.796875-.0625 2.703125-.25.898437-.71875 1.761719-1.40625 2.59375zm0 0" transform="translate(126.268156 145.778277)"/><path d="m-6.921875-8.8125 2.75-2.5625 7.59375 8.203125-2.75 2.5625zm0 0" transform="translate(134.929784 135.730438)"/><path d="m5.71875-3.625c-.992188.679688-2.023438 1.085938-3.09375 1.21875-1.0625.125-2.070312-.019531-3.015625-.4375-.945313-.425781-1.738281-1.101562-2.375-2.03125-.632813-.925781-.976563-1.910156-1.03125-2.953125-.050781-1.039063.171875-2.035156.671875-2.984375.5-.957031 1.246094-1.773438 2.234375-2.453125 1-.675781 2.035156-1.078125 3.109375-1.203125 1.082031-.132812 2.097656.011719 3.046875.4375.945313.429688 1.738281 1.105469 2.375 2.03125.632813.929688.976563 1.914062 1.03125 2.953125.050781 1.03125-.179687 2.027344-.6875 2.984375-.511719.949219-1.265625 1.761719-2.265625 2.4375zm-1.71875-2.515625c.382812-.257813.671875-.585937.859375-.984375.1875-.40625.25-.847656.1875-1.328125-.054687-.476563-.234375-.945313-.546875-1.40625-.324219-.46875-.699219-.8125-1.125-1.03125-.417969-.21875-.851562-.3125-1.296875-.28125-.4375.023437-.851563.164063-1.234375.421875-.386719.273438-.667969.605469-.84375 1-.1875.398438-.253906.835938-.203125 1.3125.054687.480469.2382812.953125.5625 1.421875.3125.460937.679687.796875 1.109375 1.015625.425781.21875.859375.320312 1.296875.296875.4375-.019531.847656-.164063 1.234375-.4375zm-6.34375-10.015625 2.84375-1.9375-1.15625 3.875-1.96875 1.359375zm0 0" transform="translate(139.906093 130.863897)"/><path d="m6.5-14.984375 4.4375 10.25-2.84375 1.21875-5.90625-2.953125 2.015625 4.65625-3.375 1.453125-4.4375-10.25 2.859375-1.234375 5.890625 2.96875-2.015625-4.65625zm0 0" transform="translate(152.09409 122.687202)"/><path d="m-.59375-11.203125 5.46875-.71875c1.226562-.164063 2.347656-.085937 3.359375.234375 1.007813.3125 1.832031.855469 2.46875 1.625.632813.761719 1.03125 1.703125 1.1875 2.828125.144531 1.136719.007813 2.15625-.40625 3.0625-.417969.898437-1.070313 1.636719-1.953125 2.21875-.886719.574219-1.945312.945313-3.171875 1.109375l-5.46875.71875zm6.40625 7.46875c.800781-.101563 1.410156-.421875 1.828125-.953125.414063-.53125.570313-1.210938.46875-2.046875-.117187-.820313-.445313-1.425781-.984375-1.8125-.542969-.394531-1.214844-.539063-2.015625-.4375l-1.578125.203125.703125 5.25zm0 0" transform="translate(171.194353 115.526025)"/><path d="m10.3125-2.40625-.125 2.84375-9.28125-.390625.484375-11.15625 9.078125.390625-.125 2.84375-5.375-.234375-.046875 1.28125 4.71875.203125-.125 2.71875-4.71875-.203125-.0625 1.46875zm0 0" transform="translate(185.482733 113.830195)"/><path d="m14.71875-7.09375-3.34375 10.65625-2.953125-.921875-2.53125-6.109375-1.515625 4.84375-3.515625-1.109375 3.34375-10.65625 2.96875.9375 2.53125 6.109375 1.515625-4.84375zm0 0" transform="translate(203.795181 115.488033)"/><path d="m5.828125 3.4375c-1.054687-.574219-1.882813-1.308594-2.484375-2.203125-.605469-.886719-.9375-1.847656-1-2.890625-.054688-1.039062.1875-2.054688.71875-3.046875.53125-.976563 1.242188-1.726563 2.140625-2.25.90625-.519531 1.898437-.773437 2.984375-.765625 1.082031.011719 2.148438.304688 3.203125.875 1.0625.574219 1.894531 1.3125 2.5 2.21875.601563.898438.929687 1.867188.984375 2.90625.050781 1.03125-.1875 2.035156-.71875 3.015625-.53125.988281-1.246094 1.742187-2.140625 2.265625-.898437.53125-1.886719.785156-2.96875.765625-1.085937-.023437-2.15625-.320313-3.21875-.890625zm1.453125-2.671875c.40625.21875.832031.316406 1.28125.296875.445312-.023438.867188-.164062 1.265625-.421875.40625-.261719.738281-.640625 1-1.140625.269531-.488281.40625-.972656.40625-1.453125 0-.488281-.117187-.921875-.34375-1.296875-.230469-.382812-.546875-.6875-.953125-.90625-.417969-.21875-.84375-.316406-1.28125-.296875-.4375.011719-.855469.152344-1.25.421875-.398438.273438-.730469.652344-1 1.140625-.261719.5-.398438.992187-.40625 1.46875 0 .46875.109375.898437.328125 1.28125s.535156.6875.953125.90625zm0 0" transform="translate(217.111678 119.742819)"/><path d="m7.75-4.375-2.5625-2.046875 1.8125-2.28125 8.0625 6.4375-1.8125 2.28125-2.546875-2.046875-5.140625 6.453125-2.953125-2.34375zm0 0" transform="translate(229.95743 126.964224)"/><path d="m8.625-7.140625 2.625 2.6875-8 7.796875-2.625-2.6875zm0 0" transform="translate(239.094266 134.551424)"/><path d="m3.765625 5.53125c-.699219-.949219-1.132813-1.953125-1.296875-3.015625-.15625-1.054687-.042969-2.058594.34375-3.015625.394531-.957031 1.050781-1.773438 1.96875-2.453125.90625-.664063 1.875-1.046875 2.90625-1.140625 1.039062-.09375 2.039062.09375 3 .5625.957031.460938 1.785156 1.164062 2.484375 2.109375.644531.875 1.0625 1.769531 1.25 2.6875.195313.914063.175781 1.8125-.0625 2.6875l-3.125-.65625c.289063-1.085937.15625-2-.40625-2.75-.460937-.625-1.039063-.976563-1.734375-1.0625-.699219-.082031-1.386719.125-2.0625.625-.6875.507813-1.09375 1.109375-1.21875 1.796875-.117188.6875.054688 1.34375.515625 1.96875.5625.75 1.40625 1.144531 2.53125 1.1875l-.3125 3.1875c-.917969-.023438-1.78125-.261719-2.59375-.71875-.8125-.460938-1.542969-1.125-2.1875-2zm0 0" transform="translate(244.060254 139.487753)"/><path d="m10.234375-4.5625 1.796875 3.296875-9.796875 5.359375-1.796875-3.296875zm0 0" transform="translate(251.689069 150.340489)"/><path d="m4.8125 7.296875-1.484375-3.96875-2.09375-.015625-1.34375-3.59375 12.1875.640625 1.296875 3.46875-8.765625 8.515625-1.359375-3.65625zm2.171875-1.90625 2.265625-2-3.03125-.046875zm0 0" transform="translate(255.176162 156.381619)"/><path d="m.6875 5.03125c-.179688-.90625-.246094-1.8125-.203125-2.71875.050781-.898438.191406-1.652344.421875-2.265625l2.9375.671875c-.210938.59375-.34375 1.226562-.40625 1.90625-.054688.675781-.027344 1.3125.078125 1.90625.09375.519531.207031.878906.34375 1.078125.144531.207031.3125.289063.5.25.238281-.042969.390625-.21875.453125-.53125.0625-.304687.097656-.804687.109375-1.5.019531-.875.078125-1.617187.171875-2.21875.101562-.605469.347656-1.15625.734375-1.65625.394531-.5.992187-.820313 1.796875-.96875.675781-.132813 1.332031-.0625 1.96875.21875.632812.273437 1.1875.7617188 1.65625 1.46875.46875.707031.804688 1.613281 1.015625 2.71875.132813.75.191406 1.5.171875 2.25-.023438.757813-.136719 1.453125-.34375 2.078125l-2.890625-.609375c.34375-1.1875.425781-2.261719.25-3.21875-.1875-.949219-.515625-1.382813-.984375-1.296875-.21875.039062-.355469.210938-.40625.515625-.054688.300781-.085938.785156-.09375 1.453125 0 .863281-.054688 1.601562-.15625 2.21875-.09375.613281-.328125 1.175781-.703125 1.6875-.375.507812-.964844.84375-1.765625 1-.699219.125-1.367188.046875-2-.234375-.625-.28125-1.171875-.777344-1.640625-1.484375-.46875-.710938-.808594-1.617188-1.015625-2.71875zm0 0" transform="translate(259.916818 169.646839)"/><path d="m5.8125-5.390625-2.59375-1.234375.4375-.953125 6.265625 3-.4375.953125-2.609375-1.25-3.171875 6.640625-1.0625-.515625zm0 0" transform="translate(148.673259 261.248926)"/><path d="m5.390625-4.875c.832031.304688 1.394531.734375 1.6875 1.296875.289063.5625.289063 1.246094 0 2.046875l-1.3125 3.609375-1.015625-.359375.28125-.796875c-.28125.207031-.621094.328125-1.015625.359375-.386719.03125-.808594-.039062-1.265625-.203125-.667969-.242187-1.148438-.59375-1.4375-1.0625-.28125-.46875-.328125-.96875-.140625-1.5.195313-.53125.546875-.882813 1.046875-1.0625.5-.175781 1.164062-.113281 2 .1875l1.71875.625.078125-.21875c.164063-.457031.15625-.859375-.03125-1.203125-.1875-.351562-.542969-.628906-1.0625-.828125-.34375-.125-.710937-.191406-1.09375-.203125-.386719-.007812-.730469.046875-1.03125.171875l-.15625-1c.394531-.125.832031-.171875 1.3125-.140625.476563.023438.957031.117188 1.4375.28125zm-2.15625 5.171875c.40625.15625.796875.191406 1.171875.109375.375-.074219.6875-.25.9375-.53125l.3125-.828125-1.671875-.609375c-.929687-.332031-1.507813-.191406-1.734375.421875-.105469.292969-.070312.570313.109375.828125.175781.2617188.46875.460938.875.609375zm0 0" transform="translate(155.953461 264.668932)"/><path d="m8.078125-4.484375-4.703125 6.015625c-.4375.5625-.867188.921875-1.28125 1.078125-.40625.164063-.859375.1875-1.359375.0625-.304687-.085937-.578125-.214844-.828125-.390625-.257812-.167969-.460938-.367188-.609375-.59375l.703125-.703125c.226562.375.550781.617187.96875.734375.257812.0625.503906.046875.734375-.046875.226563-.09375.457031-.296875.6875-.609375l.296875-.390625-1.140625-6.828125 1.171875.296875.875 5.484375 3.40625-4.390625zm0 0" transform="translate(163.651336 267.393631)"/><path d="m2.6875-8.5625 1.140625.203125-1.609375 8.765625-1.140625-.203125zm0 0" transform="translate(171.029733 269.199569)"/><path d="m3.78125.46875c-.625-.0625-1.171875-.261719-1.640625-.59375s-.824219-.757812-1.0625-1.28125c-.230469-.519531-.3125-1.09375-.25-1.71875.0625-.613281.257813-1.148438.59375-1.609375.34375-.457031.78125-.796875 1.3125-1.015625.53125-.226562 1.109375-.3125 1.734375-.25.625.074219 1.171875.277344 1.640625.609375.46875.324219.816406.746094 1.046875 1.265625.226562.511719.3125 1.074219.25 1.6875-.0625.625-.261719 1.171875-.59375 1.640625-.335938.460937-.765625.80078125-1.296875 1.03125-.53125.226563-1.109375.304687-1.734375.234375zm.109375-1.015625c.394531.042969.765625-.007813 1.109375-.15625.351562-.144531.640625-.375.859375-.6875.21875-.320313.347656-.707031.390625-1.15625.050781-.4375 0-.832031-.15625-1.1875-.148438-.351563-.375-.640625-.6875-.859375-.304688-.21875-.652344-.347656-1.046875-.390625-.40625-.039063-.78125.015625-1.125.171875-.34375.148438-.625.375-.84375.6875s-.355469.6875-.40625 1.125c-.042969.449219.007813.855469.15625 1.21875.15625.355469.382813.640625.6875.859375.300781.210937.65625.335937 1.0625.375zm0 0" transform="translate(175.216352 270.012721)"/><path d="m2.296875-5.265625c.195313-.351563.492187-.625.890625-.8125.394531-.1875.875-.273437 1.4375-.265625l-.015625 1.125c-.0625-.007812-.152344-.015625-.265625-.015625-.625-.007813-1.121094.167969-1.484375.53125-.355469.355469-.542969.875-.5625 1.5625l-.046875 3.171875-1.15625-.015625.109375-6.359375 1.109375.015625zm0 0" transform="translate(183.75256 270.803715)"/><path d="m3.6875-.34375c-.617188.074219-1.230469.054688-1.84375-.0625-.605469-.125-1.09375-.328125-1.46875-.609375l.34375-.96875c.34375.242187.773438.421875 1.296875.546875.519531.117188 1.035156.140625 1.546875.078125.695312-.070313 1.203125-.242187 1.515625-.515625.3125-.269531.441406-.601562.390625-1-.03125-.289062-.152344-.515625-.359375-.671875-.199219-.15625-.445313-.265625-.734375-.328125-.28125-.0625-.679688-.117188-1.1875-.171875-.648438-.082031-1.171875-.175781-1.578125-.28125-.398437-.101563-.75-.296875-1.0625-.578125-.3125-.289062-.4960938-.695312-.546875-1.21875-.0507812-.445312.0078125-.863281.1875-1.25.1875-.382812.507812-.710938.96875-.984375.457031-.269531 1.035156-.445313 1.734375-.53125.5-.0625.988281-.050781 1.46875.03125.488281.074219.921875.203125 1.296875.390625l-.28125 1c-.367188-.175781-.757812-.296875-1.171875-.359375-.417969-.070313-.820313-.085937-1.203125-.046875-.667969.074219-1.15625.257812-1.46875.546875-.304688.28125-.433594.621094-.390625 1.015625.03125.28125.148437.5.359375.65625.21875.15625.472656.265625.765625.328125.300781.0625.695313.125 1.1875.1875.65625.085937 1.175781.179687 1.5625.28125.394531.105469.75.296875 1.0625.578125.3125.273438.5.667969.5625 1.1875.050781.449219-.023437.867188-.21875 1.25-.199219.375-.527344.699219-.984375.96875-.449219.273438-1.03125.449219-1.75.53125zm0 0" transform="translate(193.647188 270.725203)"/><path d="m8.890625-8.71875-.78125 6.734375-1.078125.265625-2.921875-4.25-.65625 5.125-1.078125.265625-3.8125-5.609375 1.046875-.265625 3 4.46875.671875-5.359375.9375-.234375 3.046875 4.5.625-5.390625zm0 0" transform="translate(202.157717 269.760664)"/><path d="m-1.0625-6.359375 1.09375-.390625 2.09375 6-1.09375.390625zm.140625-1.34375c-.21875.074219-.414063.070313-.59375-.015625-.1875-.09375-.316406-.238281-.390625-.4375-.070312-.195312-.0625-.382812.03125-.5625.085938-.1875.234375-.316406.453125-.390625.210937-.070313.40625-.066406.59375.015625.1875.074219.3125.203125.375.390625.074219.210937.070313.414063-.015625.609375-.09375.1875-.242188.320312-.453125.390625zm0 0" transform="translate(213.542961 266.743042)"/><path d="m.09375-8.734375c-.632812.273437-.8125.757813-.53125 1.453125l.203125.5 1.703125-.71875.375.875-1.6875.703125 2.0625 5-1.046875.4375-2.0625-5-1 .40625-.375-.875 1-.40625-.203125-.515625c-.25-.59375-.269531-1.125-.0625-1.59375.199219-.476562.605469-.84375 1.21875-1.09375.2421875-.101562.472656-.164062.703125-.1875.226563-.03125.429687-.023438.609375.015625l.03125.953125c-.324219-.09375-.636719-.078125-.9375.046875zm0 0" transform="translate(217.479269 265.355099)"/><path d="m4.015625-2.40625c-.074219.210938-.210937.402344-.40625.578125-.1875.179687-.402344.324219-.640625.4375-.574219.292969-1.09375.359375-1.5625.203125-.460938-.15625-.828125-.519531-1.109375-1.09375l-1.546875-3.125-.96875.484375-.421875-.859375.96875-.484375-.609375-1.25 1.015625-.5.609375 1.25 1.640625-.8125.421875.859375-1.640625.8125 1.515625 3.078125c.15625.3125.347656.511719.578125.59375.238281.085937.503906.058594.796875-.078125.3125-.15625.539062-.378906.6875-.671875zm0 0" transform="translate(222.189391 263.388529)"/></g></svg>