<svg height="500" preserveAspectRatio="xMidYMid meet" viewBox="0 0 375 374.999991" width="500" xmlns="http://www.w3.org/2000/svg" zoomAndPan="magnify"><g fill="#923939"><path d="m72.40625-81.9375v23.71875l-4.78125-.109375-.234375-6.125c-8.40625-6.03125-15.382813-10.472656-20.921875-13.328125v73.375l9.671875.125v4.28125h-39.625v-4.28125l9.65625-.125v-73.375c-5.542969 2.855469-12.511719 7.296875-20.90625 13.328125l-.25 6.125-4.765625.109375v-23.71875zm0 0" transform="translate(121.09586 224.275312)"/><path d="m26.53125-68.96875c0 2.605469.734375 5.011719 2.203125 7.21875 1.46875 2.199219 3.300781 4.152344 5.5 5.859375 2.207031 1.710937 5.226563 3.828125 9.0625 6.359375 4.476563 2.9375 8.0625 5.527344 10.75 7.765625 2.695313 2.242187 5.003906 4.933594 6.921875 8.078125 1.914062 3.136719 2.875 6.664062 2.875 10.578125 0 4.324219-1.183594 8.382813-3.546875 12.171875-2.367187 3.78125-5.914063 6.855469-10.640625 9.21875-4.730469 2.363281-10.4375 3.546875-17.125 3.546875-14.355469 0-24.546875-5.703125-30.578125-17.109375l13.828125-10.640625c3.90625 8.074219 8.304688 15.898437 13.203125 23.46875h.125c2.363281 0 4.5625-.628906 6.59375-1.890625 2.039063-1.257812 3.671875-2.910156 4.890625-4.953125 1.226562-2.039063 1.84375-4.203125 1.84375-6.484375 0-2.4375-.714844-4.695312-2.140625-6.78125-1.429687-2.082031-3.203125-3.914062-5.328125-5.5-2.117188-1.59375-5.007812-3.53125-8.671875-5.8125-4.40625-2.769531-7.953125-5.210938-10.640625-7.328125-2.6875-2.125-4.992188-4.710937-6.90625-7.765625-1.917969-3.0625-2.875-6.59375-2.875-10.59375 0-4.476562 1.28125-8.570312 3.84375-12.28125 2.570312-3.707031 6.242188-6.617188 11.015625-8.734375 4.769531-2.125 10.375-3.1875 16.8125-3.1875 6.28125 0 11.4375 1 15.46875 3 4.03125 1.992187 7.679687 4.820313 10.953125 8.484375l-12.84375 12.96875c-4.324219-7.175781-8.6875-13.90625-13.09375-20.1875-3.667969 0-6.5 1-8.5 3s-3 4.511719-3 7.53125zm0 0" transform="translate(193.740226 224.275312)"/><path d="m27.925781 178.769531h326.105469v21h-326.105469z"/></g><g fill="#fff"><path d="m3.15625-7.875h-3.109375v-1.46875h7.9375v1.46875h-3.09375v7.875h-1.734375zm0 0" transform="translate(64.028715 193.629436)"/><path d="m7.3125-2.15625h-4.671875l-.921875 2.15625h-1.78125l4.203125-9.34375h1.703125l4.21875 9.34375h-1.8125zm-.578125-1.359375-1.75-4.09375-1.75 4.09375zm0 0" transform="translate(80.075408 193.629436)"/><path d="m5.28125-3.296875v3.296875h-1.734375v-3.265625l-3.671875-6.078125h1.859375l2.734375 4.546875 2.765625-4.546875h1.703125zm0 0" transform="translate(98.084213 193.629436)"/><path d="m1.25-9.34375h1.734375v7.875h4.890625v1.46875h-6.625zm0 0" transform="translate(114.91842 193.629436)"/><path d="m5.625.140625c-.960938 0-1.824219-.2070312-2.59375-.625-.761719-.414063-1.359375-.988281-1.796875-1.71875-.429687-.738281-.640625-1.5625-.640625-2.46875s.210938-1.722656.640625-2.453125c.4375-.738281 1.035156-1.3125 1.796875-1.71875.769531-.414062 1.632812-.625 2.59375-.625.945312 0 1.800781.210938 2.5625.625.769531.40625 1.367188.976562 1.796875 1.703125.4375.730469.65625 1.554687.65625 2.46875 0 .917969-.21875 1.742187-.65625 2.46875-.429687.730469-1.027344 1.304687-1.796875 1.71875-.761719.4179688-1.617188.625-2.5625.625zm0-1.53125c.613281 0 1.171875-.140625 1.671875-.421875s.890625-.671875 1.171875-1.171875c.289062-.5.4375-1.0625.4375-1.6875s-.148438-1.1875-.4375-1.6875c-.28125-.5-.671875-.890625-1.171875-1.171875s-1.058594-.421875-1.671875-.421875c-.625 0-1.1875.140625-1.6875.421875s-.898438.671875-1.1875 1.171875c-.28125.5-.421875 1.0625-.421875 1.6875s.140625 1.1875.421875 1.6875c.289062.5.6875.890625 1.1875 1.171875s1.0625.421875 1.6875.421875zm0 0" transform="translate(130.92507 193.629436)"/><path d="m7.359375 0-1.90625-2.734375c-.074219.011719-.195313.015625-.359375.015625h-2.109375v2.71875h-1.734375v-9.34375h3.84375c.8125 0 1.515625.136719 2.109375.40625.601563.261719 1.066406.640625 1.390625 1.140625.320312.5.484375 1.09375.484375 1.78125 0 .699219-.171875 1.304687-.515625 1.8125-.34375.511719-.839844.890625-1.484375 1.140625l2.15625 3.0625zm-.03125-6.015625c0-.59375-.199219-1.050781-.59375-1.375-.386719-.320313-.960937-.484375-1.71875-.484375h-2.03125v3.71875h2.03125c.757813 0 1.332031-.160156 1.71875-.484375.394531-.320313.59375-.78125.59375-1.375zm0 0" transform="translate(150.175215 193.629436)"/><path d="m.75-9.34375h1.4375l-.125 3.703125h-1.203125zm0 0" transform="translate(167.943763 193.629436)"/><path d="m4.15625.140625c-.730469 0-1.433594-.1054688-2.109375-.3125-.667969-.207031-1.195313-.476563-1.578125-.8125l.59375-1.34375c.382812.304687.851562.546875 1.40625.734375.5625.1875 1.125.28125 1.6875.28125.6875 0 1.203125-.109375 1.546875-.328125s.515625-.507813.515625-.875c0-.269531-.101562-.488281-.296875-.65625-.1875-.175781-.429687-.3125-.71875-.40625-.292969-.101563-.695313-.21875-1.203125-.34375-.710938-.164063-1.289062-.332031-1.734375-.5-.4375-.175781-.8125-.441406-1.125-.796875-.3125-.363281-.46875-.851562-.46875-1.46875 0-.507812.140625-.976562.421875-1.40625.28125-.425781.703125-.757812 1.265625-1 .5625-.25 1.253906-.375 2.078125-.375.5625 0 1.117188.074219 1.671875.21875.550781.136719 1.03125.339844 1.4375.609375l-.5625 1.34375c-.40625-.238281-.835937-.421875-1.28125-.546875-.4375-.125-.867187-.1875-1.28125-.1875-.6875 0-1.199219.117188-1.53125.34375-.335937.230469-.5.539062-.5.921875 0 .273437.09375.492187.28125.65625.195313.167969.441406.304687.734375.40625.289062.09375.691406.203125 1.203125.328125.6875.15625 1.253906.324219 1.703125.5.445312.179688.828125.445312 1.140625.796875.3125.355469.46875.835937.46875 1.4375 0 .511719-.140625.980469-.421875 1.40625-.28125.417969-.710938.75-1.28125 1-.5625.25-1.25.375-2.0625.375zm0 0" transform="translate(178.891615 193.629436)"/><path d="m9.796875-9.34375-4.078125 9.34375h-1.703125l-4.078125-9.34375h1.875l3.109375 7.203125 3.140625-7.203125zm0 0" transform="translate(206.994012 193.629436)"/><path d="m8.265625-1.453125v1.453125h-7.015625v-9.34375h6.828125v1.453125h-5.09375v2.4375h4.515625v1.421875h-4.515625v2.578125zm0 0" transform="translate(224.735866 193.629436)"/><path d="m7.359375 0-1.90625-2.734375c-.074219.011719-.195313.015625-.359375.015625h-2.109375v2.71875h-1.734375v-9.34375h3.84375c.8125 0 1.515625.136719 2.109375.40625.601563.261719 1.066406.640625 1.390625 1.140625.320312.5.484375 1.09375.484375 1.78125 0 .699219-.171875 1.304687-.515625 1.8125-.34375.511719-.839844.890625-1.484375 1.140625l2.15625 3.0625zm-.03125-6.015625c0-.59375-.199219-1.050781-.59375-1.375-.386719-.320313-.960937-.484375-1.71875-.484375h-2.03125v3.71875h2.03125c.757813 0 1.332031-.160156 1.71875-.484375.394531-.320313.59375-.78125.59375-1.375zm0 0" transform="translate(241.690195 193.629436)"/><path d="m4.15625.140625c-.730469 0-1.433594-.1054688-2.109375-.3125-.667969-.207031-1.195313-.476563-1.578125-.8125l.59375-1.34375c.382812.304687.851562.546875 1.40625.734375.5625.1875 1.125.28125 1.6875.28125.6875 0 1.203125-.109375 1.546875-.328125s.515625-.507813.515625-.875c0-.269531-.101562-.488281-.296875-.65625-.1875-.175781-.429687-.3125-.71875-.40625-.292969-.101563-.695313-.21875-1.203125-.34375-.710938-.164063-1.289062-.332031-1.734375-.5-.4375-.175781-.8125-.441406-1.125-.796875-.3125-.363281-.46875-.851562-.46875-1.46875 0-.507812.140625-.976562.421875-1.40625.28125-.425781.703125-.757812 1.265625-1 .5625-.25 1.253906-.375 2.078125-.375.5625 0 1.117188.074219 1.671875.21875.550781.136719 1.03125.339844 1.4375.609375l-.5625 1.34375c-.40625-.238281-.835937-.421875-1.28125-.546875-.4375-.125-.867187-.1875-1.28125-.1875-.6875 0-1.199219.117188-1.53125.34375-.335937.230469-.5.539062-.5.921875 0 .273437.09375.492187.28125.65625.195313.167969.441406.304687.734375.40625.289062.09375.691406.203125 1.203125.328125.6875.15625 1.253906.324219 1.703125.5.445312.179688.828125.445312 1.140625.796875.3125.355469.46875.835937.46875 1.4375 0 .511719-.140625.980469-.421875 1.40625-.28125.417969-.710938.75-1.28125 1-.5625.25-1.25.375-2.0625.375zm0 0" transform="translate(259.458748 193.629436)"/><path d="m1.25-9.34375h1.734375v9.34375h-1.734375zm0 0" transform="translate(275.865822 193.629436)"/><path d="m5.625.140625c-.960938 0-1.824219-.2070312-2.59375-.625-.761719-.414063-1.359375-.988281-1.796875-1.71875-.429687-.738281-.640625-1.5625-.640625-2.46875s.210938-1.722656.640625-2.453125c.4375-.738281 1.035156-1.3125 1.796875-1.71875.769531-.414062 1.632812-.625 2.59375-.625.945312 0 1.800781.210938 2.5625.625.769531.40625 1.367188.976562 1.796875 1.703125.4375.730469.65625 1.554687.65625 2.46875 0 .917969-.21875 1.742187-.65625 2.46875-.429687.730469-1.027344 1.304687-1.796875 1.71875-.761719.4179688-1.617188.625-2.5625.625zm0-1.53125c.613281 0 1.171875-.140625 1.671875-.421875s.890625-.671875 1.171875-1.171875c.289062-.5.4375-1.0625.4375-1.6875s-.148438-1.1875-.4375-1.6875c-.28125-.5-.671875-.890625-1.171875-1.171875s-1.058594-.421875-1.671875-.421875c-.625 0-1.1875.140625-1.6875.421875s-.898438.671875-1.1875 1.171875c-.28125.5-.421875 1.0625-.421875 1.6875s.140625 1.1875.421875 1.6875c.289062.5.6875.890625 1.1875 1.171875s1.0625.421875 1.6875.421875zm0 0" transform="translate(288.1351 193.629436)"/><path d="m9.546875-9.34375v9.34375h-1.421875l-5.15625-6.328125v6.328125h-1.71875v-9.34375h1.4375l5.140625 6.328125v-6.328125zm0 0" transform="translate(307.385251 193.629436)"/></g></svg>