<svg fill="#fff" height="24" width="24" xmlns="http://www.w3.org/2000/svg"><path d="m8.81829 19c6.50181 0 10.05801-5.3867 10.05801-10.05799 0-.153 0-.30531-.0104-.45693.6919-.50041 1.2891-1.12001 1.7637-1.82979-.6452.28587-1.3296.47335-2.0304.55617.738-.44178 1.2903-1.13662 1.5541-1.95522-.6939.41176-1.453.70195-2.2446.85804-.533-.56673-1.2379-.94201-2.0057-1.06775-.7677-.12575-1.5555.00505-2.2414.37214s-1.2318.95001-1.553 1.65856c-.3213.70856-.4 1.50323-.2241 2.26106-1.4054-.07045-2.78034-.43568-4.03546-1.07197-1.25511-.63628-2.36239-1.5294-3.24995-2.62138-.45205.7782-.5905 1.69944-.38717 2.57614s.73315 1.64294 1.4816 2.14272c-.56256-.0167-1.11285-.1684-1.60443-.44246v.0448c.00022.81616.28275 1.60706.79965 2.23866s1.23636 1.065 2.03635 1.2266c-.52042.1419-1.06646.1627-1.59615.0606.22588.7024.66566 1.3167 1.25781 1.7568.59215.4402 1.30707.6842 2.04477.6981-1.25175.9838-2.79806 1.5178-4.39012 1.5162-.28126-.0005-.56224-.0176-.8415-.051 1.61658 1.0374 3.49756 1.5877 5.41839 1.5851"/></svg>