<svg fill="#fff" height="24" width="30" xmlns="http://www.w3.org/2000/svg"><path d="m25.1953 6.84194c-.2444-.92178-.9666-1.64759-1.8823-1.89436-1.6597-.44758-8.3177-.44758-8.3177-.44758s-6.65811 0-8.31778.44758c-.91573.24677-1.63791.97258-1.88226 1.89436-.44516 1.67177-.44516 5.15806-.44516 5.15806s0 3.4863.44516 5.1581c.24435.9217.96653 1.6475 1.88226 1.8943 1.65967.4476 8.31778.4476 8.31778.4476s6.658 0 8.3177-.4476c.9157-.2468 1.6379-.9726 1.8823-1.8943.4451-1.6718.4451-5.1581.4451-5.1581s0-3.48629-.4451-5.15806zm-12.3775 8.32376v-6.33143l5.5646 3.16573z"/></svg>